<svg xmlns:dc="http://purl.org/dc/elements/1.1/" xmlns:cc="http://creativecommons.org/ns#" xmlns:rdf="http://www.w3.org/1999/02/22-rdf-syntax-ns#" xmlns:svg="http://www.w3.org/2000/svg" xmlns="http://www.w3.org/2000/svg" xmlns:sodipodi="http://sodipodi.sourceforge.net/DTD/sodipodi-0.dtd" xmlns:inkscape="http://www.inkscape.org/namespaces/inkscape" version="1.1" x="0px" y="0px" viewBox="0 0 100 100"><g transform="translate(0,-952.36218)"><path style="text-indent:0;text-transform:none;direction:ltr;block-progression:tb;baseline-shift:baseline;color:#000000;enable-background:accumulate;" d="m 45.976842,962.35927 c -2.91232,0.0743 -5.84124,0.46549 -8.71875,1.1875 -21.399331,5.36942 -34.4319205,27.13187 -29.0625006,48.53113 5.3694096,21.3994 27.1319206,34.4632 48.5312506,29.0938 21.39934,-5.3694 34.43192,-27.1631 29.0625,-48.56246 a 2.0069629,2.0069635 0 0 0 -3.875,1 c 4.84332,19.30256 -6.85364,38.81286 -26.15625,43.65616 -19.30254,4.8434 -38.812931,-6.8536 -43.656251,-26.1562 -4.8433195,-19.30256 6.822391,-38.81286 26.125001,-43.65618 10.36113,-2.59977 21.33834,-0.4826 29.96875,5.8125 a 2.0041147,2.0041153 0 1 0 2.375,-3.21875 c -7.19048,-5.24483 -15.85674,-7.91034 -24.59375,-7.6875 z m 44.75,3.96875 a 2.0001999,2.0001999 0 0 0 -1.15625,0.625 c -10.81047,11.31052 -30.39711,32.72322 -41.6875,44.59368 l -15.5625,-13.71866 a 2.0001999,2.0001999 0 1 0 -2.625,2.99996 l 17,14.9999 a 2.0001999,2.0001999 0 0 0 2.75,-0.125 c 11.15124,-11.6668 31.92892,-34.41666 43,-45.99988 a 2.0001999,2.0001999 0 0 0 -1.71875,-3.375 z" fill="#212f4c" fill-opacity="1" stroke="none" marker="none" visibility="visible" display="inline" overflow="visible"></path></g></svg>