<svg xmlns="http://www.w3.org/2000/svg" xmlns:xlink="http://www.w3.org/1999/xlink" version="1.1" x="0px" y="0px" viewBox="0 0 100 100" style="enable-background:new 0 0 100 100;" xml:space="preserve"><style type="text/css">
	.st0{fill:none;stroke:#000000;stroke-width:2;stroke-linecap:round;stroke-linejoin:round;stroke-miterlimit:10;}
	.st1{fill:none;stroke:#000000;stroke-width:2;stroke-linecap:round;stroke-miterlimit:10;}
	.st2{stroke:#000000;stroke-width:0.5;stroke-linecap:round;stroke-linejoin:round;stroke-miterlimit:10;}
</style><g><path d="M73.3,73.8c-0.6,0-1-0.4-1-1V25H56.9v44.4c0,0.6-0.4,1-1,1s-1-0.4-1-1V24c0-0.6,0.4-1,1-1h17.4c0.6,0,1,0.4,1,1v48.8   C74.3,73.4,73.9,73.8,73.3,73.8z"></path></g><g><path d="M40.6,89.1c-0.6,0-1-0.4-1-1V39.8l-16.4,0v48.3c0,0.6-0.4,1-1,1s-1-0.4-1-1V38.8c0-0.6,0.4-1,1-1l18.4,0c0,0,0,0,0,0   c0.3,0,0.5,0.1,0.7,0.3c0.2,0.2,0.3,0.4,0.3,0.7v49.4C41.6,88.7,41.1,89.1,40.6,89.1z"></path></g><g><path d="M36.3,59.6c-0.6,0-1-0.4-1-1v-2.3c0-0.6,0.4-1,1-1s1,0.4,1,1v2.3C37.3,59.2,36.8,59.6,36.3,59.6z"></path></g><g><path d="M36.3,65.6c-0.6,0-1-0.4-1-1v-2.3c0-0.6,0.4-1,1-1s1,0.4,1,1v2.3C37.3,65.1,36.8,65.6,36.3,65.6z"></path></g><g><path d="M36.3,53.3c-0.6,0-1-0.4-1-1V50c0-0.6,0.4-1,1-1s1,0.4,1,1v2.3C37.3,52.8,36.8,53.3,36.3,53.3z"></path></g><g><path d="M36.3,47.2c-0.6,0-1-0.4-1-1v-2.3c0-0.6,0.4-1,1-1s1,0.4,1,1v2.3C37.3,46.7,36.8,47.2,36.3,47.2z"></path></g><g><path d="M31.2,59.6c-0.6,0-1-0.4-1-1v-2.3c0-0.6,0.4-1,1-1s1,0.4,1,1v2.3C32.2,59.2,31.8,59.6,31.2,59.6z"></path></g><g><path d="M31.2,65.6c-0.6,0-1-0.4-1-1v-2.3c0-0.6,0.4-1,1-1s1,0.4,1,1v2.3C32.2,65.1,31.8,65.6,31.2,65.6z"></path></g><g><path d="M31.2,53.3c-0.6,0-1-0.4-1-1V50c0-0.6,0.4-1,1-1s1,0.4,1,1v2.3C32.2,52.8,31.8,53.3,31.2,53.3z"></path></g><g><path d="M31.2,47.2c-0.6,0-1-0.4-1-1v-2.3c0-0.6,0.4-1,1-1s1,0.4,1,1v2.3C32.2,46.7,31.8,47.2,31.2,47.2z"></path></g><g><path d="M26.2,59.6c-0.6,0-1-0.4-1-1v-2.3c0-0.6,0.4-1,1-1s1,0.4,1,1v2.3C27.2,59.2,26.7,59.6,26.2,59.6z"></path></g><g><path d="M26.2,65.6c-0.6,0-1-0.4-1-1v-2.3c0-0.6,0.4-1,1-1s1,0.4,1,1v2.3C27.2,65.1,26.7,65.6,26.2,65.6z"></path></g><g><path d="M26.2,53.3c-0.6,0-1-0.4-1-1V50c0-0.6,0.4-1,1-1s1,0.4,1,1v2.3C27.2,52.8,26.7,53.3,26.2,53.3z"></path></g><g><path d="M26.2,47.2c-0.6,0-1-0.4-1-1v-2.3c0-0.6,0.4-1,1-1s1,0.4,1,1v2.3C27.2,46.7,26.7,47.2,26.2,47.2z"></path></g><g><path d="M80.6,89.6H19.7c-0.6,0-1-0.4-1-1s0.4-1,1-1h60.9c0.6,0,1,0.4,1,1S81.2,89.6,80.6,89.6z"></path></g><g><path d="M40,70.3H22.5c-0.6,0-1-0.4-1-1s0.4-1,1-1H40c0.6,0,1,0.4,1,1S40.5,70.3,40,70.3z"></path></g><g><path d="M26.5,86c-0.6,0-1-0.4-1-1V73.8c0-0.6,0.4-1,1-1s1,0.4,1,1V85C27.5,85.6,27,86,26.5,86z"></path></g><g><path d="M31.4,86c-0.6,0-1-0.4-1-1V73.8c0-0.6,0.4-1,1-1s1,0.4,1,1V85C32.4,85.6,31.9,86,31.4,86z"></path></g><g><path d="M36.2,86c-0.6,0-1-0.4-1-1V73.8c0-0.6,0.4-1,1-1s1,0.4,1,1V85C37.2,85.6,36.8,86,36.2,86z"></path></g><g><path d="M60.5,68.5c-0.6,0-1-0.4-1-1V29.2c0-0.6,0.4-1,1-1s1,0.4,1,1v38.3C61.5,68.1,61,68.5,60.5,68.5z"></path></g><g><path d="M64.6,68.5c-0.6,0-1-0.4-1-1V29.2c0-0.6,0.4-1,1-1s1,0.4,1,1v38.3C65.6,68.1,65.2,68.5,64.6,68.5z"></path></g><g><path d="M68.8,68.5c-0.6,0-1-0.4-1-1V29.2c0-0.6,0.4-1,1-1s1,0.4,1,1v38.3C69.8,68.1,69.3,68.5,68.8,68.5z"></path></g><path d="M76.1,73.3c0-0.5-0.5-0.9-1-0.9h-5.6c-0.5,0-1,0.4-1,0.9l-0.2,2.9c-1.1-1.8-2.8-3.4-4.9-4.7c-0.1-0.1-0.3-0.2-0.5-0.3  c-2.9-1.6-6.6-2.6-10.5-2.6c-4.2,0-8.2,1.1-11.4,3c-0.5,0.3-0.6,0.9-0.3,1.4s0.9,0.6,1.4,0.3c1.2-0.8,2.6-1.4,4.1-1.8v8.9h-4.3  c-0.6,0-1,0.4-1,1s0.4,1,1,1h26l-0.4,5.7c0,0.3,0.1,0.5,0.3,0.8s0.5,0.3,0.7,0.3h7.6c0.3,0,0.5-0.1,0.7-0.3s0.3-0.5,0.3-0.8  L76.1,73.3z M53.3,70.6c1.1,0,2.1,0.2,3.2,0.4v9.4h-3.2V70.6z M58.4,71.5c1.1,0.3,2.2,0.8,3.2,1.3v7.6h-3.2V71.5z M48.1,71  c1-0.2,2.1-0.3,3.2-0.4v9.8h-3.2V71z M63.6,80.4V74c2.3,1.7,3.8,3.9,4.2,6.4H63.6z M69.5,87.2l0.9-12.9h3.7L75,87.2H69.5z"></path><path d="M53.5,20c-0.2-0.2-0.5-0.3-0.7-0.3h-2l-0.5-6.2c0-0.5-0.5-0.9-1-0.9h-2.6V9.4c0-0.6-0.4-1-1-1s-1,0.4-1,1v3.2h-2.6  c-0.5,0-1,0.4-1,0.9l-0.5,6.2h-2.1c-0.3,0-0.5,0.1-0.7,0.3s-0.3,0.5-0.3,0.7l0.6,10.8c0,0.5,0.5,0.9,1,0.9h13.2c0.5,0,1-0.4,1-0.9  l0.6-10.8C53.7,20.5,53.7,20.2,53.5,20z M42.8,14.6h5.4l0.4,5.1h-6.3L42.8,14.6z M51.2,30.4H39.9l-0.5-8.8h1.9h8.5h1.9L51.2,30.4z"></path><g><path d="M45.5,71.3c-0.6,0-1-0.4-1-1V31.7c0-0.6,0.4-1,1-1s1,0.4,1,1v38.7C46.5,70.9,46.1,71.3,45.5,71.3z"></path></g></svg>